{
    "asset" : {
        "generator" : "Khronos glTF Blender I/O v3.4.50",
        "version" : "2.0"
    },
    "extensionsUsed" : [
        "KHR_materials_emissive_strength"
    ],
    "scene" : 0,
    "scenes" : [
        {
            "name" : "Scene",
            "nodes" : [
                0
            ]
        }
    ],
    "nodes" : [
        {
            "mesh" : 0,
            "name" : "Cube",
            "rotation" : [
                0.9995647668838501,
                -0.02886033058166504,
                0.005918488837778568,
                0.0015306809218600392
            ],
            "scale" : [
                1.0708768367767334,
                1.0708768367767334,
                1.0708768367767334
            ],
            "translation" : [
                -12.861227989196777,
                6.729252815246582,
                0.008086241781711578
            ]
        }
    ],
    "materials" : [
        {
            "doubleSided" : true,
            "emissiveFactor" : [
                0.04180167615413666,
                0.006710973102599382,
                1
            ],
            "extensions" : {
                "KHR_materials_emissive_strength" : {
                    "emissiveStrength" : 6.699999809265137
                }
            },
            "name" : "Material",
            "pbrMetallicRoughness" : {
                "baseColorFactor" : [
                    1,
                    0.3688167929649353,
                    0.7722507119178772,
                    1
                ],
                "metallicFactor" : 0,
                "roughnessFactor" : 0.5234375
            }
        },
        {
            "doubleSided" : true,
            "name" : "Material.001",
            "pbrMetallicRoughness" : {
                "baseColorFactor" : [
                    0.03678803890943527,
                    0.137583389878273,
                    0.020220518112182617,
                    1
                ],
                "metallicFactor" : 0,
                "roughnessFactor" : 0.5
            }
        },
        {
            "doubleSided" : true,
            "emissiveFactor" : [
                1,
                0.9871634244918823,
                0.010588619858026505
            ],
            "name" : "Material.003",
            "pbrMetallicRoughness" : {
                "baseColorFactor" : [
                    0.8000000715255737,
                    0.7760767936706543,
                    0.7760767936706543,
                    1
                ],
                "metallicFactor" : 0,
                "roughnessFactor" : 0.5
            }
        }
    ],
    "meshes" : [
        {
            "name" : "Cube",
            "primitives" : [
                {
                    "attributes" : {
                        "COLOR_0" : 0,
                        "POSITION" : 1,
                        "TEXCOORD_0" : 2,
                        "NORMAL" : 3
                    },
                    "indices" : 4,
                    "material" : 0
                },
                {
                    "attributes" : {
                        "COLOR_0" : 5,
                        "POSITION" : 6,
                        "TEXCOORD_0" : 7,
                        "NORMAL" : 8
                    },
                    "indices" : 9,
                    "material" : 1
                },
                {
                    "attributes" : {
                        "COLOR_0" : 10,
                        "POSITION" : 11,
                        "TEXCOORD_0" : 12,
                        "NORMAL" : 13
                    },
                    "indices" : 14,
                    "material" : 2
                }
            ]
        }
    ],
    "accessors" : [
        {
            "bufferView" : 0,
            "componentType" : 5123,
            "count" : 1080,
            "normalized" : true,
            "type" : "VEC4"
        },
        {
            "bufferView" : 1,
            "componentType" : 5126,
            "count" : 1080,
            "max" : [
                3.825315237045288,
                3.6811065673828125,
                4.323221206665039
            ],
            "min" : [
                -3.1915719509124756,
                -3.904385566711426,
                -3.3592731952667236
            ],
            "type" : "VEC3"
        },
        {
            "bufferView" : 2,
            "componentType" : 5126,
            "count" : 1080,
            "type" : "VEC2"
        },
        {
            "bufferView" : 3,
            "componentType" : 5126,
            "count" : 1080,
            "type" : "VEC3"
        },
        {
            "bufferView" : 4,
            "componentType" : 5123,
            "count" : 1740,
            "type" : "SCALAR"
        },
        {
            "bufferView" : 5,
            "componentType" : 5123,
            "count" : 152,
            "normalized" : true,
            "type" : "VEC4"
        },
        {
            "bufferView" : 6,
            "componentType" : 5126,
            "count" : 152,
            "max" : [
                0.6570647954940796,
                8.469521522521973,
                0.709452211856842
            ],
            "min" : [
                -1.1539523601531982,
                -0.8461676239967346,
                -1.2527693510055542
            ],
            "type" : "VEC3"
        },
        {
            "bufferView" : 7,
            "componentType" : 5126,
            "count" : 152,
            "type" : "VEC2"
        },
        {
            "bufferView" : 8,
            "componentType" : 5126,
            "count" : 152,
            "type" : "VEC3"
        },
        {
            "bufferView" : 9,
            "componentType" : 5123,
            "count" : 762,
            "type" : "SCALAR"
        },
        {
            "bufferView" : 10,
            "componentType" : 5123,
            "count" : 79,
            "normalized" : true,
            "type" : "VEC4"
        },
        {
            "bufferView" : 11,
            "componentType" : 5126,
            "count" : 79,
            "max" : [
                0.9673742055892944,
                0.8518864512443542,
                1.0569051504135132
            ],
            "min" : [
                -0.8761118054389954,
                -1.0252692699432373,
                -1.137803077697754
            ],
            "type" : "VEC3"
        },
        {
            "bufferView" : 12,
            "componentType" : 5126,
            "count" : 79,
            "type" : "VEC2"
        },
        {
            "bufferView" : 13,
            "componentType" : 5126,
            "count" : 79,
            "type" : "VEC3"
        },
        {
            "bufferView" : 14,
            "componentType" : 5123,
            "count" : 336,
            "type" : "SCALAR"
        }
    ],
    "bufferViews" : [
        {
            "buffer" : 0,
            "byteLength" : 8640,
            "byteOffset" : 0,
            "target" : 34962
        },
        {
            "buffer" : 0,
            "byteLength" : 12960,
            "byteOffset" : 8640,
            "target" : 34962
        },
        {
            "buffer" : 0,
            "byteLength" : 8640,
            "byteOffset" : 21600,
            "target" : 34962
        },
        {
            "buffer" : 0,
            "byteLength" : 12960,
            "byteOffset" : 30240,
            "target" : 34962
        },
        {
            "buffer" : 0,
            "byteLength" : 3480,
            "byteOffset" : 43200,
            "target" : 34963
        },
        {
            "buffer" : 0,
            "byteLength" : 1216,
            "byteOffset" : 46680,
            "target" : 34962
        },
        {
            "buffer" : 0,
            "byteLength" : 1824,
            "byteOffset" : 47896,
            "target" : 34962
        },
        {
            "buffer" : 0,
            "byteLength" : 1216,
            "byteOffset" : 49720,
            "target" : 34962
        },
        {
            "buffer" : 0,
            "byteLength" : 1824,
            "byteOffset" : 50936,
            "target" : 34962
        },
        {
            "buffer" : 0,
            "byteLength" : 1524,
            "byteOffset" : 52760,
            "target" : 34963
        },
        {
            "buffer" : 0,
            "byteLength" : 632,
            "byteOffset" : 54284,
            "target" : 34962
        },
        {
            "buffer" : 0,
            "byteLength" : 948,
            "byteOffset" : 54916,
            "target" : 34962
        },
        {
            "buffer" : 0,
            "byteLength" : 632,
            "byteOffset" : 55864,
            "target" : 34962
        },
        {
            "buffer" : 0,
            "byteLength" : 948,
            "byteOffset" : 56496,
            "target" : 34962
        },
        {
            "buffer" : 0,
            "byteLength" : 672,
            "byteOffset" : 57444,
            "target" : 34963
        }
    ],
    "buffers" : [
        {
            "byteLength" : 58116,
            "uri" : "data:application/octet-stream;base64,"
        }
    ]
}
