{
    "asset" : {
        "generator" : "Khronos glTF Blender I/O v3.4.50",
        "version" : "2.0"
    },
    "scene" : 0,
    "scenes" : [
        {
            "name" : "Scene",
            "nodes" : [
                0
            ]
        }
    ],
    "nodes" : [
        {
            "mesh" : 0,
            "name" : "Sphere.001",
            "translation" : [
                -0.008742116391658783,
                1.7789415121078491,
                -0.015563160181045532
            ]
        }
    ],
    "materials" : [
        {
            "doubleSided" : true,
            "emissiveFactor" : [
                7.721247641256923e-09,
                6.560361143215232e-10,
                5.2411241568961486e-08
            ],
            "name" : "Material.002",
            "pbrMetallicRoughness" : {
                "baseColorFactor" : [
                    0,
                    0.9646859169006348,
                    0.13286857306957245,
                    1
                ],
                "metallicFactor" : 0,
                "roughnessFactor" : 0.5
            }
        }
    ],
    "meshes" : [
        {
            "name" : "Sphere.007",
            "primitives" : [
                {
                    "attributes" : {
                        "POSITION" : 0,
                        "TEXCOORD_0" : 1,
                        "NORMAL" : 2
                    },
                    "indices" : 3,
                    "material" : 0
                }
            ]
        }
    ],
    "accessors" : [
        {
            "bufferView" : 0,
            "componentType" : 5126,
            "count" : 9120,
            "max" : [
                3.218851089477539,
                2.46020245552063,
                3.1693050861358643
            ],
            "min" : [
                -3.112360715866089,
                -2.187614679336548,
                -2.5126430988311768
            ],
            "type" : "VEC3"
        },
        {
            "bufferView" : 1,
            "componentType" : 5126,
            "count" : 9120,
            "type" : "VEC2"
        },
        {
            "bufferView" : 2,
            "componentType" : 5126,
            "count" : 9120,
            "type" : "VEC3"
        },
        {
            "bufferView" : 3,
            "componentType" : 5123,
            "count" : 13680,
            "type" : "SCALAR"
        }
    ],
    "bufferViews" : [
        {
            "buffer" : 0,
            "byteLength" : 109440,
            "byteOffset" : 0,
            "target" : 34962
        },
        {
            "buffer" : 0,
            "byteLength" : 72960,
            "byteOffset" : 109440,
            "target" : 34962
        },
        {
            "buffer" : 0,
            "byteLength" : 109440,
            "byteOffset" : 182400,
            "target" : 34962
        },
        {
            "buffer" : 0,
            "byteLength" : 27360,
            "byteOffset" : 291840,
            "target" : 34963
        }
    ],
    "buffers" : [
        {
            "byteLength" : 319200,
            "uri" : "data:application/octet-stream;base64,"
        }
    ]
}
