{
    "asset" : {
        "generator" : "Khronos glTF Blender I/O v3.4.50",
        "version" : "2.0"
    },
    "scene" : 0,
    "scenes" : [
        {
            "name" : "Scene",
            "nodes" : [
                0
            ]
        }
    ],
    "nodes" : [
        {
            "mesh" : 0,
            "name" : "Text",
            "rotation" : [
                0.7071068286895752,
                0,
                0,
                0.7071068286895752
            ],
            "scale" : [
                20.76468276977539,
                20.76468276977539,
                20.76468276977539
            ]
        }
    ],
    "materials" : [
        {
            "doubleSided" : true,
            "name" : "mystereBlue",
            "pbrMetallicRoughness" : {
                "baseColorFactor" : [
                    0.034339554607868195,
                    0.030713286250829697,
                    0.3967550992965698,
                    1
                ],
                "metallicFactor" : 0.10000000149011612,
                "roughnessFactor" : 0.5
            }
        }
    ],
    "meshes" : [
        {
            "name" : "Text",
            "primitives" : [
                {
                    "attributes" : {
                        "POSITION" : 0,
                        "TEXCOORD_0" : 1,
                        "NORMAL" : 2
                    },
                    "indices" : 3,
                    "material" : 0
                }
            ]
        }
    ],
    "accessors" : [
        {
            "bufferView" : 0,
            "componentType" : 5126,
            "count" : 1508,
            "max" : [
                0.15692934393882751,
                0.03999999910593033,
                0.234375
            ],
            "min" : [
                -0.1569293588399887,
                -0.03999999910593033,
                -0.234375
            ],
            "type" : "VEC3"
        },
        {
            "bufferView" : 1,
            "componentType" : 5126,
            "count" : 1508,
            "type" : "VEC2"
        },
        {
            "bufferView" : 2,
            "componentType" : 5126,
            "count" : 1508,
            "type" : "VEC3"
        },
        {
            "bufferView" : 3,
            "componentType" : 5123,
            "count" : 2664,
            "type" : "SCALAR"
        }
    ],
    "bufferViews" : [
        {
            "buffer" : 0,
            "byteLength" : 18096,
            "byteOffset" : 0,
            "target" : 34962
        },
        {
            "buffer" : 0,
            "byteLength" : 12064,
            "byteOffset" : 18096,
            "target" : 34962
        },
        {
            "buffer" : 0,
            "byteLength" : 18096,
            "byteOffset" : 30160,
            "target" : 34962
        },
        {
            "buffer" : 0,
            "byteLength" : 5328,
            "byteOffset" : 48256,
            "target" : 34963
        }
    ],
    "buffers" : [
        {
            "byteLength" : 53584,
            "uri" : "data:application/octet-stream;base64,"
        }
    ]
}
